# xmcd
#
# Track frame offsets: 
#        150
#        17160
#        39797
#        56805
#
# Disc length: 1056 seconds
#
# Revision: 1
# Processed by: cddbd v1.5.2PL0 Copyright (c) Steve Scherf et al.
# Submitted via: ExactAudioCopy v1.3
#
DISCID=29041e04
DTITLE=嵐 - 君のために僕がいる
DYEAR=2001
DGENRE=JPop
TTITLE0=君のために僕がいる
TTITLE1=はなさない！
TTITLE2=君のために僕がいる（オリジナル・カラオケ）
TTITLE3=はなさない！（オリジナル・カラオケ）
EXTD=YEAR: 2001
EXTT0=
EXTT1=
EXTT2=
EXTT3=
PLAYORDER=
